<svg width="140" height="48" viewBox="0 0 140 48" fill="none" xmlns="http://www.w3.org/2000/svg">
<g filter="url(#filter0_d)">
<rect x="1" y="1" width="136" height="44" rx="22" fill="#E03636"/>
</g>
<g clip-path="url(#clip0)">
<path d="M46.2653 17.3585C42.5351 17.3585 41.0433 19.3981 41.0433 19.3981L44.2614 21.562C44.6147 21.0156 45.3806 20.6933 45.9639 20.6933C46.9421 20.6933 47.7318 21.2425 47.7318 21.9754V22.2689C47.7318 22.928 46.6022 23.0379 45.6611 23.1116C41.5599 23.4412 39.752 25.1642 39.752 27.6562C39.752 30.368 41.8582 31.8713 44.4929 31.8713C46.3365 31.8713 47.3919 31.1385 47.8431 30.4056H47.9559V31.6155H52.0958L52.0972 22.0867C52.0987 18.9341 49.6154 17.3585 46.2653 17.3585ZM47.7318 27.107C47.7318 28.0971 46.6022 28.83 45.4726 28.83C44.5315 28.83 43.9304 28.3168 43.9304 27.5478C43.9304 26.5215 44.4944 25.9347 46.2267 25.7525C46.7536 25.6788 47.5062 25.5328 47.7318 25.3131V27.107Z" fill="white"/>
<path d="M95.4176 17.3585C91.6874 17.3585 90.1957 19.3981 90.1957 19.3981L93.4137 21.562C93.767 21.0156 94.5329 20.6933 95.1163 20.6933C96.0945 20.6933 96.8841 21.2425 96.8841 21.9754V22.2689C96.8841 22.928 95.7546 23.0379 94.8135 23.1116C90.7122 23.4412 88.9043 25.1642 88.9043 27.6562C88.9043 30.368 91.0106 31.8713 93.6453 31.8713C95.4889 31.8713 96.5442 31.1385 96.9955 30.4056H97.1083V31.6155H101.248L101.25 22.0867C101.251 18.9341 98.7678 17.3585 95.4176 17.3585ZM96.8841 27.107C96.8841 28.0971 95.7546 28.83 94.625 28.83C93.6839 28.83 93.0827 28.3168 93.0827 27.5478C93.0827 26.5215 93.6468 25.9347 95.379 25.7525C95.906 25.6788 96.6585 25.5328 96.8841 25.3131V27.107Z" fill="white"/>
<path d="M58.5248 26.2454L57.4709 27.4178V31.6141H53.1426V14.3012C53.1426 13.4571 53.7541 12.7285 54.6047 12.5623L57.4709 12V22.1951H57.6594L61.498 17.5406H66.5032L61.3198 23.5424L66.7303 31.6141H65.3662H62.065L58.5248 26.2454Z" fill="white"/>
<path d="M75.8314 31.614V22.8182C75.8314 21.3148 74.966 20.6918 73.875 20.6918C72.8954 20.6918 72.1057 21.2411 72.1057 22.7444V31.614H67.7773V18.9861C67.7773 18.1448 68.3844 17.4192 69.2305 17.2486L71.9929 16.6936V19.0439H72.1057C72.934 18.0538 74.1007 17.3585 75.87 17.3585C77.6007 17.3585 78.8045 18.0552 79.4072 19.3012H79.5571C80.3468 18.1651 81.7777 17.3585 83.6212 17.3585C86.0674 17.3585 88.0238 18.752 88.0238 22.8196V31.6155H83.6969V22.8182C83.6969 21.205 82.9073 20.6918 81.8905 20.6918C80.7238 20.6918 80.0083 21.351 80.0083 22.8904V31.6126H75.8314V31.614Z" fill="white"/>
<path d="M102.295 31.6141V14.3012C102.295 13.4571 102.906 12.7285 103.757 12.5623L106.623 12V31.6141H102.295Z" fill="white"/>
<path d="M107.672 31.6141V14.3012C107.672 13.4571 108.283 12.7285 109.134 12.5623L112 12V31.6141H107.672Z" fill="white"/>
<path d="M34.5483 12.1287H31.6108C30.8657 12.1287 30.2883 12.6895 30.2883 13.4123L30.2868 15.5849H34.5469L34.5424 25.9896C34.5424 26.8901 34.2945 27.5955 33.8477 28.0437C33.821 28.0697 33.7928 28.0942 33.7646 28.1188C33.7423 28.1376 33.7216 28.1579 33.6993 28.1766C33.6726 28.1983 33.6429 28.2186 33.6147 28.2388C33.5895 28.2576 33.5642 28.2749 33.5375 28.2923C33.5093 28.3111 33.4796 28.327 33.4499 28.3429C33.4202 28.3588 33.392 28.3747 33.3609 28.3891C33.3312 28.4036 33.3015 28.4166 33.2718 28.4296C33.2392 28.4441 33.205 28.4571 33.1709 28.4686C33.1412 28.4788 33.1115 28.4889 33.0818 28.499C33.0432 28.5106 33.0046 28.5207 32.966 28.5293C32.9378 28.5366 32.9081 28.5438 32.8785 28.5496C32.8324 28.5583 32.7849 28.564 32.7374 28.5713C32.7122 28.5742 32.6885 28.5785 32.6632 28.5814C32.589 28.5886 32.5133 28.5929 32.4361 28.5929C32.2417 28.5929 32.0591 28.5698 31.8869 28.5293C31.8038 28.5091 31.7236 28.486 31.6479 28.4571C31.6286 28.4498 31.6079 28.4441 31.5886 28.4354C30.8434 28.1246 30.3951 27.3628 30.3669 26.2122L30.4441 22.9902L30.4456 22.9136C28.185 22.3513 26.0831 23.8445 26.0045 26.0633L26 26.2093C25.9985 30.1671 28.7074 32 32.4332 32C36.0832 32 38.8693 29.6539 38.8708 25.9896L38.8752 12.1287H34.5483Z" fill="white"/>
<path d="M28.2339 28.8661C29.9157 29.5875 32.8369 29.2666 33.8477 28.0437C33.8477 28.0437 33.8477 28.0422 33.8492 28.0422C33.4959 28.3964 33.0165 28.5901 32.4346 28.5901C31.1922 28.5901 30.4026 27.7473 30.3655 26.2079L30.4441 22.9107C28.185 22.3513 26.0831 23.8445 26.0045 26.0633L26 26.2093C26 26.2093 26.0401 27.9237 28.2339 28.8661Z" fill="#FFC209"/>
</g>
<defs>
<filter id="filter0_d" x="0" y="0" width="140" height="48" filterUnits="userSpaceOnUse" color-interpolation-filters="sRGB">
<feFlood flood-opacity="0" result="BackgroundImageFix"/>
<feColorMatrix in="SourceAlpha" type="matrix" values="0 0 0 0 0 0 0 0 0 0 0 0 0 0 0 0 0 0 127 0"/>
<feOffset dx="1" dy="1"/>
<feGaussianBlur stdDeviation="1"/>
<feColorMatrix type="matrix" values="0 0 0 0 0 0 0 0 0 0 0 0 0 0 0 0 0 0 0.1 0"/>
<feBlend mode="normal" in2="BackgroundImageFix" result="effect1_dropShadow"/>
<feBlend mode="normal" in="SourceGraphic" in2="effect1_dropShadow" result="shape"/>
</filter>
<clipPath id="clip0">
<rect width="86" height="20" fill="white" transform="translate(26 12)"/>
</clipPath>
</defs>
</svg>
