<svg width="172" height="44" viewBox="0 0 172 44" fill="none" xmlns="http://www.w3.org/2000/svg">
<rect width="172" height="44" rx="22" fill="#E03636"/>
<path fill-rule="evenodd" clip-rule="evenodd" d="M26.5836 17.0267V26.6856C26.5836 27.1213 26.545 27.4026 26.4926 27.4941C26.4086 27.6327 26.2929 27.6962 26.1076 27.6962C25.9299 27.6962 25.7157 27.6355 25.4663 27.5078L25 27.2688V28.9779L25.2053 29.0558C25.7019 29.2436 26.1558 29.3392 26.567 29.3392C27.1098 29.3392 27.5548 29.1357 27.8744 28.7369C28.1843 28.3497 28.3297 27.7707 28.3297 27.0018V17.0267H26.5836Z" fill="white"/>
<path fill-rule="evenodd" clip-rule="evenodd" d="M25.7285 14.6586C25.7285 15.5743 26.4814 16.3173 27.4099 16.3173C28.3384 16.3173 29.0913 15.5743 29.0913 14.6586C29.0906 13.7423 28.3384 13 27.4099 13C26.4814 13 25.7285 13.7423 25.7285 14.6586Z" fill="white"/>
<path fill-rule="evenodd" clip-rule="evenodd" d="M30.9311 21.5492C30.9311 19.8476 32.326 18.4682 34.0459 18.4682C35.7659 18.4682 37.1607 19.8476 37.1607 21.5492C37.1607 23.2509 35.7659 24.6302 34.0459 24.6302C32.326 24.6302 30.9311 23.2509 30.9311 21.5492ZM30.637 18.1944C29.7168 19.1149 29.2539 20.2307 29.2539 21.526C29.2539 22.8453 29.7127 23.9754 30.6239 24.8986C31.5366 25.8232 32.6483 26.2896 33.9398 26.2896C34.6665 26.2896 35.3395 26.1393 35.9553 25.8396C36.341 25.6518 36.702 25.406 37.0381 25.1041V26.0731H38.7587V17.0254H37.0381V18.0292C36.7261 17.7253 36.3858 17.4774 36.0173 17.2855C35.4042 16.9673 34.721 16.8082 33.9708 16.8082C32.6752 16.8089 31.558 17.2739 30.637 18.1944Z" fill="white"/>
<path fill-rule="evenodd" clip-rule="evenodd" d="M47.6108 21.5492C47.6108 19.8476 49.0057 18.4682 50.7256 18.4682C52.4462 18.4682 53.8404 19.8476 53.8404 21.5492C53.8404 23.2509 52.4456 24.6302 50.7256 24.6302C49.005 24.6302 47.6108 23.2509 47.6108 21.5492ZM47.3167 18.1944C46.3965 19.1149 45.9336 20.2307 45.9336 21.526C45.9336 22.8453 46.3923 23.9754 47.3036 24.8986C48.2163 25.8232 49.328 26.2896 50.6195 26.2896C51.3462 26.2896 52.0192 26.1393 52.635 25.8396C53.0207 25.6518 53.3816 25.406 53.7178 25.1041V26.0731H55.4384V17.0254H53.7178V18.0292C53.4058 17.7253 53.0655 17.4774 52.697 17.2855C52.0839 16.9673 51.4006 16.8082 50.6505 16.8082C49.3542 16.8089 48.237 17.2739 47.3167 18.1944Z" fill="white"/>
<path fill-rule="evenodd" clip-rule="evenodd" d="M68.5386 21.5492C68.5386 19.8476 69.9334 18.4682 71.6533 18.4682C73.3733 18.4682 74.7681 19.8476 74.7681 21.5492C74.7681 23.2509 73.3733 24.6302 71.6533 24.6302C69.9334 24.6302 68.5386 23.2509 68.5386 21.5492ZM68.2445 18.1944C67.3242 19.1149 66.8613 20.2307 66.8613 21.526C66.8613 22.8453 67.3201 23.9754 68.2314 24.8986C69.144 25.8232 70.2558 26.2896 71.5473 26.2896C72.274 26.2896 72.9469 26.1393 73.5627 25.8396C73.9484 25.6518 74.3101 25.406 74.6455 25.1041V26.0731H76.3662V17.0254H74.6455V18.0292C74.3335 17.7253 73.9932 17.4774 73.6247 17.2855C73.0117 16.9673 72.3284 16.8082 71.5783 16.8082C70.2819 16.8089 69.1647 17.2739 68.2445 18.1944Z" fill="white"/>
<path fill-rule="evenodd" clip-rule="evenodd" d="M58.6314 17.2193C58.4392 17.3436 58.2532 17.4965 58.0727 17.6775V17.0247H56.3184V26.0506H58.0727V22.8951C58.0727 21.468 58.1389 20.5209 58.2635 20.0791C58.4247 19.5109 58.6527 19.1046 58.94 18.8534C59.2224 18.6062 59.4999 18.4894 59.781 18.4894C59.8871 18.4894 60.0393 18.5283 60.2315 18.6103L60.4849 18.7182L61.3749 17.2951L61.0842 17.134C60.6964 16.9189 60.321 16.8082 59.9608 16.8082C59.4965 16.8089 59.0508 16.9475 58.6314 17.2193Z" fill="white"/>
<path fill-rule="evenodd" clip-rule="evenodd" d="M140.289 13.8508V25.9755H141.867V22.4916L144.742 25.9755H147.001L142.862 21.3451L146.745 17.095H144.409L141.867 20.1952V13.8508H140.289Z" fill="white"/>
<path fill-rule="evenodd" clip-rule="evenodd" d="M96.5393 13.93V17.0506H95.0508V18.4525H96.5393V25.9311H98.118V18.4525H99.8483V17.0506H98.118V13.93H96.5393Z" fill="white"/>
<path fill-rule="evenodd" clip-rule="evenodd" d="M79.6957 17.3142C79.3044 17.5252 78.9394 17.8093 78.5998 18.1657V17.0732H77.0293V25.9529H78.5998V22.6329C78.5998 21.5438 78.6507 20.7961 78.7486 20.4034C78.9015 19.8155 79.2183 19.3225 79.7025 18.9216C80.182 18.5242 80.7192 18.3276 81.3226 18.3276C81.8489 18.3276 82.2642 18.4518 82.5776 18.6977C82.8903 18.9428 83.1073 19.3136 83.2258 19.8203C83.3036 20.1241 83.3443 20.7571 83.3443 21.7056V25.9522H84.9072V21.3888C84.9072 20.2163 84.7859 19.3457 84.5373 18.7687C84.2852 18.1855 83.8919 17.7185 83.3608 17.3736C82.8297 17.0281 82.2215 16.856 81.5417 16.856C80.877 16.8567 80.2612 17.0097 79.6957 17.3142Z" fill="white"/>
<path fill-rule="evenodd" clip-rule="evenodd" d="M102.361 18.9251C102.959 18.3945 103.674 18.1295 104.506 18.1295C105.01 18.1295 105.491 18.2354 105.948 18.4464C106.405 18.6574 106.773 18.936 107.051 19.2808C107.329 19.6257 107.541 20.0866 107.686 20.6636H101.371C101.595 19.8906 101.925 19.3116 102.361 18.9251ZM100.941 18.5393C100.248 19.4153 99.9004 20.4171 99.9004 21.5363C99.9004 22.7272 100.311 23.7972 101.128 24.7388C101.955 25.6921 103.103 26.1694 104.553 26.1694C105.204 26.1694 105.792 26.0704 106.315 25.8717C106.837 25.673 107.307 25.3827 107.724 25.0017C108.141 24.6207 108.506 24.1243 108.82 23.5131L108.927 23.3042L107.597 22.6117L107.481 22.8043C107.16 23.3356 106.865 23.7166 106.601 23.9447C106.338 24.1721 106.016 24.3557 105.635 24.4957C105.253 24.6357 104.862 24.7054 104.459 24.7054C103.63 24.7054 102.941 24.4186 102.379 23.8395C101.864 23.3103 101.576 22.6452 101.514 21.8347H109.129L109.127 21.595C109.116 20.3959 108.787 19.3867 108.14 18.5761C107.232 17.4324 106.008 16.856 104.491 16.856C103.014 16.8567 101.824 17.4201 100.941 18.5393Z" fill="white"/>
<path fill-rule="evenodd" clip-rule="evenodd" d="M111.485 21.4837C111.485 19.782 112.879 18.4027 114.599 18.4027C116.32 18.4027 117.714 19.782 117.714 21.4837C117.714 23.1853 116.319 24.5647 114.599 24.5647C112.879 24.5647 111.485 23.1853 111.485 21.4837ZM109.877 13.8508V25.9755H111.44V24.8529C111.784 25.2168 112.164 25.5077 112.578 25.7235C113.174 26.0355 113.839 26.1912 114.568 26.1912C115.839 26.1912 116.932 25.7358 117.834 24.8303C118.736 23.9255 119.19 22.8282 119.19 21.5499C119.19 20.2573 118.74 19.1511 117.847 18.2436C116.952 17.3354 115.865 16.8779 114.6 16.8779C113.889 16.8779 113.231 17.024 112.631 17.3156C112.204 17.5232 111.807 17.8059 111.441 18.163V13.8508H109.877Z" fill="white"/>
<path fill-rule="evenodd" clip-rule="evenodd" d="M87.3045 21.4926C87.3045 19.7909 88.6993 18.4116 90.4193 18.4116C92.1399 18.4116 93.5341 19.7909 93.5341 21.4926C93.5341 23.1942 92.1392 24.5736 90.4193 24.5736C88.6993 24.5736 87.3045 23.1942 87.3045 21.4926ZM86.9594 18.3487C86.1404 19.2474 85.7285 20.3133 85.7285 21.5363C85.7285 22.7709 86.1638 23.8545 87.0283 24.7764C87.8983 25.7037 89.0238 26.1694 90.3883 26.1694C91.748 26.1694 92.8707 25.7037 93.7407 24.7764C94.6052 23.8545 95.0405 22.7709 95.0405 21.5363C95.0405 20.3085 94.6286 19.2399 93.8096 18.3412C92.9059 17.3538 91.7604 16.8567 90.389 16.8567C89.0114 16.8567 87.8631 17.3559 86.9594 18.3487Z" fill="white"/>
<path fill-rule="evenodd" clip-rule="evenodd" d="M121.58 21.4926C121.58 19.7909 122.975 18.4116 124.695 18.4116C126.415 18.4116 127.809 19.7909 127.809 21.4926C127.809 23.1942 126.415 24.5736 124.695 24.5736C122.975 24.5736 121.58 23.1942 121.58 21.4926ZM121.235 18.3487C120.416 19.2474 120.004 20.3133 120.004 21.5363C120.004 22.7709 120.439 23.8545 121.304 24.7764C122.174 25.7037 123.299 26.1694 124.664 26.1694C126.023 26.1694 127.146 25.7037 128.016 24.7764C128.881 23.8545 129.316 22.7709 129.316 21.5363C129.316 20.3085 128.904 19.2399 128.085 18.3412C127.181 17.3538 126.036 16.8567 124.664 16.8567C123.287 16.8567 122.139 17.3559 121.235 18.3487Z" fill="white"/>
<path fill-rule="evenodd" clip-rule="evenodd" d="M131.771 21.4926C131.771 19.7909 133.166 18.4116 134.886 18.4116C136.607 18.4116 138.001 19.7909 138.001 21.4926C138.001 23.1942 136.606 24.5736 134.886 24.5736C133.165 24.5736 131.771 23.1942 131.771 21.4926ZM131.426 18.3487C130.607 19.2474 130.195 20.3133 130.195 21.5363C130.195 22.7709 130.63 23.8545 131.495 24.7764C132.365 25.7037 133.491 26.1694 134.855 26.1694C136.215 26.1694 137.338 25.7037 138.207 24.7764C139.072 23.8545 139.507 22.7709 139.507 21.5363C139.507 20.3085 139.096 19.2399 138.276 18.3412C137.373 17.3538 136.227 16.8567 134.856 16.8567C133.477 16.8567 132.329 17.3559 131.426 18.3487Z" fill="white"/>
<path fill-rule="evenodd" clip-rule="evenodd" d="M120.011 29.0619C120.554 29.6621 124.274 32.6612 129.833 32.9821C133.677 33.2034 138.305 31.3194 138.808 30.0787C139.31 28.8379 137.212 31.5441 130.222 31.5441C123.622 31.3228 120.598 28.6187 120.037 28.6187C119.914 28.6187 119.909 28.7485 120.011 29.0619Z" fill="white"/>
<path fill-rule="evenodd" clip-rule="evenodd" d="M136.904 29.1357C136.747 29.3296 137.216 29.247 137.82 29.165C138.529 29.0687 139.423 28.9718 139.71 29.3214C140.241 29.9687 138.95 32.2119 139.316 32.0514C139.682 31.8909 141.345 29.1869 140.636 28.5416C140.448 28.3702 140.122 28.3026 139.737 28.3026C138.669 28.3019 137.154 28.8257 136.904 29.1357Z" fill="white"/>
<path fill-rule="evenodd" clip-rule="evenodd" d="M39.7168 13.8071V26.0731H41.456V22.8036L44.4551 26.0731H46.8749L42.4486 21.3703L46.6138 17.0472H44.1203L41.456 19.9288V13.8071H39.7168Z" fill="white"/>
<path fill-rule="evenodd" clip-rule="evenodd" d="M63.2399 13.8863V17.0028H61.75V18.5604H63.2399V26.0287H64.9784V18.5604H66.7101V17.0028H64.9784V13.8863H63.2399Z" fill="white"/>
</svg>
