<svg id="Layer_1" data-name="Layer 1" xmlns="http://www.w3.org/2000/svg" viewBox="0 0 285.84 30.29"><defs><style>.cls-1{fill:#e03636;}</style></defs><path class="cls-1" d="M243.14,5.87c-3.3-.16-6.8,2.89-6.8,2.89V6.07H225l-2.3,8.9h-4l.63-3.14c.73-5.65-4.39-5.44-4.39-5.44H167.7l-4.08,14.12c-.83,4.29-3.28,3.11-4.51,3.08-1.63,0-.72-2.81-.72-2.81L161.69,8h-8.48s-3.77,10.6-4.24,13.27a2.39,2.39,0,0,1-2.82,2.19c-3.14.16-2.2-2.51-2.2-2.51L149.76,1H110.52c-5.37,0-9.26,14-9.26,14H89.49s2-9.37,3.78-9.92c2.6-.8,7.84-.6,7.84-.6L102.2,1h-19c-4.24.08-8.08,14-8.08,14H67.47l1.3-4.4C69.56,5.24,62.5,6,62.5,6H20.75l1.88-5H8.51L7.2,6.28,2.91,6.07,1.25,10.69H5.84L1.76,23c-2.2,5.76,2.51,8.35,3.45,8.27H23l1.46-4.81-7.11-.11c-3.25-.1-1.88-4.18-1.88-4.18l4.28-11H52.61c1.64,0,2.35,1.21,1.76,2.2C54,14.35,53.92,15,52.19,15s-7-.11-15.28,0c-.25,0-.49,0-.73,0-7.6.57-8.68,8.44-8.68,8.44C25.75,30,31,31.08,31.68,31.08H62.55L65.9,19.36h7.64l-3,11.72H84.21l3.45-11.3h12.45l-3.35,11.3h13.29l3.45-11.61h11.83l1.88-3.87H114.65l2.2-7.35a4.21,4.21,0,0,1,4.4-3H136l-6.8,20.47c-1.36,5.33,4.5,5.33,4.5,5.33h30.44c8.17,0,9.21-4.6,9.21-4.6l4.4-15.59h20.3c8.37-.11,8,1.06,7.92,2.21a2.85,2.85,0,0,1-2.9,2.39c-.77.09-15.38,0-15.38,0-5.28.39-7.85,6.28-7.85,6.28-4,7.74.48,9.3,1.26,9.31,1.21,0,32.64,0,32.64,0l3.14-11.72h4.29l-3.35,11.72h11.72L233.62,17c1.47-4.79,6.8-4.58,6.8-4.58h7l1.88-6.51ZM49.89,26.37C42.67,29.51,41.31,25,41.31,25c-1-4.27,3.45-5.54,3.45-5.54h8.37Zm151.19,0c-7.22,3.14-8.63-.39-8.82-1.4-.68-3.11,2.89-5.25,3.69-5.5s8.37-.12,8.37-.12Z" transform="translate(-1.18 -1)"/><path class="cls-1" d="M283,6.52H257.63s-4.06,0-5.35,2.9l-.09.21c-1.18,3.11-2.36,7.21-2.36,7.21h-4.69l-.75,3.27h4.06l-2,6.14S244.9,29.84,249,30h31.12v-3.9H260.66s-3.19,0-2.64-1.93l.87-2.56s.59-2,4.64-1.62l20.45.13,2.87-9.73S288.23,6.64,283,6.52ZM276.68,13a6.32,6.32,0,0,1-2.28,3.89c-.88.47-11.25,0-12.61-.09-.65-.06-.54-1.15-.05-3.1s1.32-3.13,2.09-3.35,8.66-.17,8.66-.17C276.74,10.23,276.92,11.27,276.68,13Z" transform="translate(-1.18 -1)"/></svg>