<svg width="148" height="48" viewBox="0 0 148 48" fill="none" xmlns="http://www.w3.org/2000/svg">
<g filter="url(#filter0_d)">
<rect x="1" y="1" width="144" height="44" rx="22" fill="#E03636"/>
</g>
<path fill-rule="evenodd" clip-rule="evenodd" d="M76.2538 27.0615C75.2329 28.0865 74.0105 28.6024 72.5946 28.6024C71.4494 28.6024 70.476 28.3707 69.4823 27.8004V25.4503C70.282 25.9858 71.285 26.4961 72.2763 26.4961C74.3417 26.4961 75.5716 25.0903 75.5716 23.0978C75.5716 21.1028 74.2991 19.6549 72.233 19.6549C71.3091 19.6549 70.5619 19.9831 69.9773 20.6407C69.3506 21.354 69.0268 22.3723 69.0268 23.7188V33H68.871C67.7327 33 66.8093 32.0869 66.8093 30.9616V23.371C66.8093 20.1499 68.8012 17.5498 72.2232 17.5498C73.9122 17.5498 75.2848 18.1207 76.3249 19.2686C77.3032 20.3406 77.789 21.7006 77.789 23.3356C77.789 24.7915 77.2773 26.0353 76.2538 27.0615ZM29.244 28.3854C27.0766 28.3854 26 26.927 26 24.8899V17.1617C26 16.0359 26.9227 15.1233 28.0617 15.1233H28.2168V17.7662H31.9626V19.8718H28.2168V25.1337C28.2168 26.0285 28.621 26.2804 29.485 26.2804H31.9626V28.3854H29.244ZM42.1197 27.0432C41.0233 28.0822 39.7076 28.6024 38.178 28.6024C36.6632 28.6024 35.3536 28.0816 34.2591 27.0432C33.1603 26.001 32.6121 24.6747 32.6121 23.0758C32.6121 19.9574 35.0205 17.5498 38.178 17.5498C39.694 17.5498 41.006 18.0743 42.1085 19.1194C43.2142 20.1683 43.7667 21.4909 43.7667 23.0758C43.7667 24.6747 43.2179 26.001 42.1197 27.0432ZM52.4838 20.3211C52.1587 20.8608 51.9065 21.2477 51.7292 21.4811C51.5333 21.7348 51.3404 21.9383 51.1495 22.0783C52.6902 22.5709 53.2637 23.6265 53.2637 25.1991L53.2643 28.3854H53.108C51.9696 28.3854 51.0463 27.4728 51.0463 26.347V25.4149C51.0463 24.3972 50.5852 23.7059 49.4938 23.7059H47.4803V28.3854H47.3252C46.1868 28.3854 45.2635 27.4728 45.2635 26.347V15.039C45.2635 13.9131 46.1868 13 47.3252 13H47.4803V21.5783H48.136C48.8554 21.5783 49.3294 21.3357 49.6007 20.8748L51.4628 17.7662L53.9893 17.7644L52.4838 20.3211ZM63.9282 27.0432C62.833 28.0822 61.5161 28.6024 59.9865 28.6024C58.4723 28.6024 57.1634 28.0816 56.0676 27.0432C54.9688 26.001 54.4212 24.6747 54.4212 23.0758C54.4212 19.9574 56.829 17.5498 59.9865 17.5498C61.5031 17.5498 62.8151 18.0743 63.917 19.1194C65.0227 20.1683 65.5752 21.4909 65.5752 23.0758C65.5752 24.6747 65.027 26.001 63.9282 27.0432ZM62.3281 20.6047C61.7169 19.9721 60.9401 19.6549 59.9865 19.6549C57.9464 19.6549 56.7258 21.126 56.7258 23.0758C56.7258 24.9987 57.9761 26.4961 59.9865 26.4961C61.9993 26.4961 63.2477 24.9987 63.2477 23.0758C63.2477 22.0551 62.9387 21.236 62.3281 20.6047ZM40.519 20.6047C39.9078 19.9721 39.1316 19.6549 38.178 19.6549C36.1379 19.6549 34.9173 21.126 34.9173 23.0758C34.9173 24.9987 36.1676 26.4961 38.178 26.4961C40.1896 26.4961 41.4399 24.9987 41.4399 23.0758C41.4399 22.0551 41.1302 21.236 40.519 20.6047ZM100.258 26.9833C99.2403 28.0633 97.9313 28.6024 96.3424 28.6024C94.6676 28.6024 93.3018 28.0303 92.2623 26.883C91.2852 25.7975 90.7988 24.437 90.7988 22.816C90.7988 19.9464 93.0391 17.5498 95.984 17.5498C97.1211 17.5498 98.1081 17.7858 99.1056 18.3273V20.7012C98.3052 20.1658 97.3016 19.6549 96.3121 19.6549C94.2467 19.6549 93.0163 21.0606 93.0163 23.0538C93.0163 25.0213 94.3178 26.4961 96.3541 26.4961C97.2762 26.4961 98.0358 26.1538 98.6433 25.4662C99.2471 24.7817 99.561 23.7762 99.561 22.4261V15.039C99.561 13.9131 100.484 13 101.623 13H101.778V22.772C101.778 24.4938 101.275 25.902 100.258 26.9833ZM106.519 16.5059C106.286 16.7638 105.952 16.8824 105.545 16.8824C104.784 16.8824 104.24 16.3268 104.24 15.5805C104.24 14.8159 104.775 14.3 105.545 14.3C106.287 14.3 106.851 14.844 106.851 15.5805C106.851 15.9448 106.743 16.2571 106.519 16.5059ZM117.783 22.4261C117.783 21.5618 117.452 20.8779 116.787 20.359C116.189 19.8926 115.44 19.6549 114.532 19.6549C112.526 19.6549 111.238 21.2061 111.238 23.1186C111.238 24.9601 112.602 26.4961 114.512 26.4961C115.838 26.4961 116.548 25.7291 117.305 24.7743V27.5291C116.919 27.8145 116.476 28.1256 116.022 28.3084C115.545 28.5064 114.976 28.6024 114.316 28.6024C111.125 28.6024 109.021 25.9882 109.021 22.9676C109.021 21.4164 109.508 20.1346 110.488 19.1341C111.529 18.0749 112.893 17.5498 114.565 17.5498C117.733 17.5498 120 19.3486 120 22.599V28.3854H119.844C118.706 28.3854 117.783 27.4728 117.783 26.347V22.4261ZM87.4343 21.8051C87.1538 20.9482 86.8027 20.5264 85.9944 20.0809C84.0742 19.0186 82.1831 19.9219 81.3036 21.7965L87.4343 21.8051ZM85.7428 28.57C84.3264 28.867 82.9371 28.6378 81.5817 27.8897C80.2598 27.1587 79.373 26.0719 78.9298 24.6374C78.0325 21.7348 79.8711 18.4997 82.827 17.7161C84.293 17.328 85.6983 17.504 87.0333 18.2423C89.2513 19.4678 90.0591 21.3638 89.9181 23.8074L80.9866 23.7891C81.1176 24.786 81.743 25.5659 82.6206 26.0512C83.5106 26.5432 84.3294 26.6605 85.0896 26.4277C85.9319 26.1655 86.6161 25.4852 87.1723 24.8514L88.993 26.163C88.2501 27.4771 87.2391 28.2546 85.7428 28.57ZM104.437 17.7662H106.653V28.3854H106.498C105.36 28.3854 104.437 27.4728 104.437 26.347V17.7662Z" fill="white"/>
<defs>
<filter id="filter0_d" x="0" y="0" width="148" height="48" filterUnits="userSpaceOnUse" color-interpolation-filters="sRGB">
<feFlood flood-opacity="0" result="BackgroundImageFix"/>
<feColorMatrix in="SourceAlpha" type="matrix" values="0 0 0 0 0 0 0 0 0 0 0 0 0 0 0 0 0 0 127 0"/>
<feOffset dx="1" dy="1"/>
<feGaussianBlur stdDeviation="1"/>
<feColorMatrix type="matrix" values="0 0 0 0 0 0 0 0 0 0 0 0 0 0 0 0 0 0 0.1 0"/>
<feBlend mode="normal" in2="BackgroundImageFix" result="effect1_dropShadow"/>
<feBlend mode="normal" in="SourceGraphic" in2="effect1_dropShadow" result="shape"/>
</filter>
</defs>
</svg>
